<?xml version="1.0" encoding="UTF-8"?>
<svg width="640px" height="477px" viewBox="0 0 640 477" version="1.1" xmlns="http://www.w3.org/2000/svg" xmlns:xlink="http://www.w3.org/1999/xlink">
    <!-- Generator: Sketch 57.1 (83088) - https://sketch.com -->
    <title>Network-graphic</title>
    <desc>Created with Sketch.</desc>
    <defs>
        <circle id="path-1" cx="37" cy="37" r="37"></circle>
        <filter x="-21.6%" y="-18.9%" width="143.2%" height="143.2%" filterUnits="objectBoundingBox" id="filter-2">
            <feOffset dx="0" dy="2" in="SourceAlpha" result="shadowOffsetOuter1"></feOffset>
            <feGaussianBlur stdDeviation="5" in="shadowOffsetOuter1" result="shadowBlurOuter1"></feGaussianBlur>
            <feColorMatrix values="0 0 0 0 0   0 0 0 0 0   0 0 0 0 0  0 0 0 0.464953016 0" type="matrix" in="shadowBlurOuter1"></feColorMatrix>
        </filter>
        <circle id="path-3" cx="37" cy="37" r="37"></circle>
        <filter x="-14.9%" y="-13.5%" width="129.7%" height="129.7%" filterUnits="objectBoundingBox" id="filter-4">
            <feOffset dx="0" dy="1" in="SourceAlpha" result="shadowOffsetOuter1"></feOffset>
            <feGaussianBlur stdDeviation="3.5" in="shadowOffsetOuter1" result="shadowBlurOuter1"></feGaussianBlur>
            <feColorMatrix values="0 0 0 0 0   0 0 0 0 0   0 0 0 0 0  0 0 0 0.464953016 0" type="matrix" in="shadowBlurOuter1"></feColorMatrix>
        </filter>
        <circle id="path-5" cx="37" cy="37" r="37"></circle>
        <filter x="-18.9%" y="-17.6%" width="137.8%" height="137.8%" filterUnits="objectBoundingBox" id="filter-6">
            <feOffset dx="0" dy="1" in="SourceAlpha" result="shadowOffsetOuter1"></feOffset>
            <feGaussianBlur stdDeviation="4.5" in="shadowOffsetOuter1" result="shadowBlurOuter1"></feGaussianBlur>
            <feColorMatrix values="0 0 0 0 0   0 0 0 0 0   0 0 0 0 0  0 0 0 0.464953016 0" type="matrix" in="shadowBlurOuter1"></feColorMatrix>
        </filter>
        <circle id="path-7" cx="70.5" cy="70.5" r="47.5"></circle>
        <filter x="-17.9%" y="-16.8%" width="135.8%" height="135.8%" filterUnits="objectBoundingBox" id="filter-8">
            <feOffset dx="0" dy="1" in="SourceAlpha" result="shadowOffsetOuter1"></feOffset>
            <feGaussianBlur stdDeviation="5.5" in="shadowOffsetOuter1" result="shadowBlurOuter1"></feGaussianBlur>
            <feColorMatrix values="0 0 0 0 0   0 0 0 0 0   0 0 0 0 0  0 0 0 0.464953016 0" type="matrix" in="shadowBlurOuter1"></feColorMatrix>
        </filter>
        <circle id="path-9" cx="70" cy="70" r="60"></circle>
        <filter x="-16.7%" y="-15.8%" width="133.3%" height="133.3%" filterUnits="objectBoundingBox" id="filter-10">
            <feMorphology radius="3" operator="dilate" in="SourceAlpha" result="shadowSpreadOuter1"></feMorphology>
            <feOffset dx="0" dy="1" in="shadowSpreadOuter1" result="shadowOffsetOuter1"></feOffset>
            <feMorphology radius="3" operator="erode" in="SourceAlpha" result="shadowInner"></feMorphology>
            <feOffset dx="0" dy="1" in="shadowInner" result="shadowInner"></feOffset>
            <feComposite in="shadowOffsetOuter1" in2="shadowInner" operator="out" result="shadowOffsetOuter1"></feComposite>
            <feGaussianBlur stdDeviation="5.5" in="shadowOffsetOuter1" result="shadowBlurOuter1"></feGaussianBlur>
            <feColorMatrix values="0 0 0 0 0   0 0 0 0 0   0 0 0 0 0  0 0 0 0.464953016 0" type="matrix" in="shadowBlurOuter1"></feColorMatrix>
        </filter>
        <circle id="path-11" cx="70" cy="70" r="70"></circle>
        <filter x="-18.6%" y="-17.9%" width="137.1%" height="137.1%" filterUnits="objectBoundingBox" id="filter-12">
            <feMorphology radius="1" operator="dilate" in="SourceAlpha" result="shadowSpreadOuter1"></feMorphology>
            <feOffset dx="0" dy="1" in="shadowSpreadOuter1" result="shadowOffsetOuter1"></feOffset>
            <feMorphology radius="1" operator="erode" in="SourceAlpha" result="shadowInner"></feMorphology>
            <feOffset dx="0" dy="1" in="shadowInner" result="shadowInner"></feOffset>
            <feComposite in="shadowOffsetOuter1" in2="shadowInner" operator="out" result="shadowOffsetOuter1"></feComposite>
            <feGaussianBlur stdDeviation="5.5" in="shadowOffsetOuter1" result="shadowBlurOuter1"></feGaussianBlur>
            <feColorMatrix values="0 0 0 0 0   0 0 0 0 0   0 0 0 0 0  0 0 0 0.464953016 0" type="matrix" in="shadowBlurOuter1"></feColorMatrix>
        </filter>
    </defs>
    <g id="Home" stroke="none" stroke-width="1" fill="none" fill-rule="evenodd">
        <g id="Axon_Web_Home_Black" transform="translate(-649.000000, -2476.000000)">
            <g id="Axon-Network" transform="translate(170.000000, 2429.000000)">
                <g id="Network-graphic" transform="translate(407.000000, 0.000000)">
                    <polyline id="Path-7" stroke="#979797" opacity="0.448869978" points="180.5 105 363 513.841448 118.139688 212.958439"></polyline>
                    <polyline id="Path-4" stroke="#959595" stroke-width="0.5" points="152 410 118.139688 211.938929 411 73.4762964 536 191.16728 605.756098 411.148148 475 364 533.402746 193.494836 183 109.41795 155.73427 408.731707 380 271 360 513.841448 472 364 677.785105 118.387898 415.964487 70.4105773"></polyline>
                    <polyline id="Path-5" stroke="#5E5E5E" points="475 364 152 410.259259 603 411.148148 411 70.4105773"></polyline>
                    <polyline id="Path" stroke="#959595" opacity="0.644205729" points="478.756098 364.634146 674.386663 121.195082 380 271 118.139688 211.938929 182.120452 102.914654 410.669075 73.4762964 380 269 591.7 415 363 513.841448 151.409936 409.689236"></polyline>
                    <circle id="Oval" fill="#959595" cx="152" cy="410" r="7"></circle>
                    <circle id="Oval" fill="#959595" cx="362" cy="512" r="7"></circle>
                    <circle id="Oval" fill="#959595" cx="536" cy="191" r="7"></circle>
                    <circle id="Oval" fill="#4C4C4C" cx="408" cy="73" r="15"></circle>
                    <circle id="Oval" stroke="#979797" cx="407.5" cy="72.5" r="19.5"></circle>
                    <circle id="Oval" stroke="#979797" cx="471.5" cy="361.5" r="19.5"></circle>
                    <circle id="Oval" stroke="#979797" cx="180.5" cy="104.5" r="19.5"></circle>
                    <circle id="Oval" fill="#4C4C4C" cx="472" cy="361" r="15"></circle>
                    <circle id="Oval" fill="#4C4C4C" cx="180" cy="104" r="15"></circle>
                    <g id="Group-2" transform="translate(566.000000, 375.000000)">
                        <g id="Oval">
                            <use fill="black" fill-opacity="1" filter="url(#filter-2)" xlink:href="#path-1"></use>
                            <use fill="#FFD700" fill-rule="evenodd" xlink:href="#path-1"></use>
                        </g>
                        <g id="Group-75" transform="translate(8.000000, 24.000000)" stroke="#000000">
                            <path d="M2.09461012,6.92736581 C1.89386799,6.58704016 1.80689437,5.99397589 1.90133542,5.61051038 L2.72978108,2.24734353 C2.82466139,1.86344226 3.16377064,1.35927226 3.48443094,1.12614266 L4.48287049,0.401479995 C4.80353079,0.16878615 5.38994381,-0.0116169438 5.78659622,0.000584231636 L17.2381224,0.36008315 C17.6343355,0.372284325 18.2677494,0.48253066 18.6446351,0.60497817 L21.4212019,1.50699364 C21.7980876,1.62900539 22.4315015,1.72835782 22.8277147,1.72792206 L46.8565922,1.6856537 C47.2532446,1.68478219 47.680206,1.37800978 47.8058345,1.00282364 L47.845368,0.884297935 C47.9709965,0.509111792 48.3988364,0.202775138 48.7950496,0.202775138 L50.3276301,0.202775138 C50.7247218,0.202775138 51.3563787,0.306920885 51.7319466,0.434161714 L54.8744175,1.49784276 C55.2499854,1.62508358 55.8324451,1.72922933 56.1689188,1.72922933 C56.6279462,1.72922933 57,2.10005791 57,2.55716623 L57,4.46708594 C57,4.86275263 56.6753864,5.18564802 56.2787339,5.18564802 L53.8294163,5.18564802 C53.2320218,5.18564802 52.715012,5.59874496 52.5849908,6.1791723 L51.441156,11.2888503 C51.2751154,12.0305074 51.7508348,12.764321 52.4984565,12.9185787 L56.2084522,13.6859455 C56.669676,13.7813761 57,14.1853221 57,14.6541959 L57,16.6307863 C57,17.149772 56.794426,17.6478414 56.4285218,18.016927 L53.990625,20.4763353 C53.7116945,20.7569624 53.1586653,20.9874774 52.7624521,20.9874774 L29.9314385,20.9874774 C29.5633381,20.9874774 29.2044621,20.8706947 28.9070826,20.6549954 L23.3697624,16.6377584 C23.1641884,16.4887298 22.9164453,16.4094221 22.6621134,16.4120367 L19.0267919,16.4460256 C18.5818208,16.4503832 18.1939537,16.7480047 18.076671,17.1759174 L14.2898046,31.0159721 C14.0763239,31.7959758 13.2821406,32.196 12.5244159,31.9049149 L0.779902879,27.395709 C0.409606118,27.2536525 0.115301456,26.8144102 0.126282973,26.4187435 C-0.341529661,20.5181679 0.428933588,15.043762 3.47432795,10.35241 C3.60566689,9.97983844 3.54900227,9.39592504 3.34826013,9.05516364 L2.09461012,6.92736581 Z" id="Stroke-43" stroke-width="0.9" stroke-linecap="round" stroke-linejoin="round"></path>
                            <path d="M56.1970582,1.77777778 L56.1970582,1.77777778 C56.6403092,1.77777778 57,2.14334955 57,2.59301999 L57,4.47451321 C57,4.86282594 56.6865431,5.18162856 56.3030991,5.18162856 L53.9379626,5.18162856 C53.3615242,5.18162856 52.8618595,5.58839151 52.736307,6.15991921 L51.6317849,11.1908218 C51.4718752,11.9215363 51.9312444,12.6432402 52.6523226,12.7959908 L56.2356571,13.5511626 C56.6806048,13.64513 57,14.0433114 57,14.504996 L57,16.4508504 C57,16.9623076 56.8014914,17.4523111 56.4477389,17.8161666 L54.0936307,20.2374359 C53.824711,20.5141892 53.2906889,20.7407407 52.9080933,20.7407407" id="Stroke-45" stroke-width="1.05024"></path>
                            <path d="M28.0621408,12.9714086 C27.9766412,13.3459236 27.5705183,13.6419045 27.1603023,13.6292377 L21.5578071,13.4573915 C21.1475912,13.4447247 20.9106482,13.1352325 21.031621,12.769162 L22.8789573,7.18394774 C22.9999301,6.81787722 23.4347044,6.51851852 23.84583,6.51851852 L25.3861864,6.51851852 C25.7968572,6.51851852 26.3689766,6.74187642 26.6573102,7.01463485 L28.4091417,8.67229672 C28.6970205,8.94505515 28.863017,9.47452738 28.7775174,9.8486202 L28.0621408,12.9714086 Z" id="Stroke-47" stroke-width="1.28" stroke-linecap="round" stroke-linejoin="round"></path>
                            <path d="M52.2,8.88888889 L54.8405777,8.88888889 C55.3704264,8.88888889 55.8,8.46575308 55.8,7.94422301 L55.8,5.33333333" id="Stroke-49" stroke-width="1.28"></path>
                            <path d="M51.6,10.6666667 L55.0456753,10.6666667 C55.4623334,10.6666667 55.8,11.0382264 55.8,11.4963724 L55.8,13.6296296" id="Stroke-51" stroke-width="1.28"></path>
                            <path d="M15.6026529,4.14814815 L10.3313191,4.29272843 C9.59602063,4.29272843 9,4.923285 9,5.70168658 C9,6.48008815 9.59602063,7.11111111 10.3313191,7.11111111 C10.4683861,7.11111111 10.6005895,7.08919088 10.7248342,7.04861512 C10.7261606,7.04768234 10.7279293,7.04721596 10.7296979,7.04674957 L15.6026529,5.41345879 C15.9324982,5.41345879 16.2,5.13036128 16.2,4.78057028 C16.2,4.43124566 15.9324982,4.14814815 15.6026529,4.14814815 Z" id="Stroke-53" stroke-width="1.28" stroke-linecap="round" stroke-linejoin="round"></path>
                            <path d="M2.4,5.64549517 L7.9716763,5.64549517 C8.36702627,5.64549517 8.87883592,5.82196421 9.10825273,6.03723141 C9.33766955,6.25291579 9.81007555,6.57581659 10.1581411,6.75520592 L14.1238997,8.80024428 C14.4719653,8.98005079 14.9487495,8.87742341 15.1825445,8.57287873 L17.8803812,5.06185407 C18.114614,4.75689221 18.6294884,4.50825026 19.0252761,4.50950181 L31.4785812,4.55122026 C31.8734934,4.552889 32.2832914,4.25543646 32.3888056,3.89081721 L33,1.77777778" id="Stroke-55" stroke-width="0.64"></path>
                            <path d="M3.6,9.48148148 L8.01715025,9.48148148 C8.41058946,9.48148148 9.01752281,9.62704235 9.36521327,9.80541751 L13.0338269,11.6825637 C13.3819531,11.8609389 13.5762763,12.3064561 13.4656079,12.6720411 L12.9279513,14.4541099 C12.8177186,14.8201156 12.9889496,15.3018127 13.3087551,15.5239402 L17.4,18.3703704" id="Stroke-57" stroke-width="0.64"></path>
                        </g>
                    </g>
                    <g id="Group-4" transform="translate(631.000000, 81.000000)">
                        <g id="Oval">
                            <use fill="black" fill-opacity="1" filter="url(#filter-4)" xlink:href="#path-3"></use>
                            <use fill="#FFD700" fill-rule="evenodd" xlink:href="#path-3"></use>
                        </g>
                        <path d="M45.1463655,62 L28.8536345,62 C26.1725676,62 24,59.8562 24,57.2114 L24,15.7886 C24,13.1438 26.1725676,11 28.8536345,11 L45.1463655,11 C47.8274324,11 50,13.1438 50,15.7886 L50,57.2114 C50,59.8562 47.8274324,62 45.1463655,62 Z" id="Stroke-61" stroke="#000000" stroke-width="0.96" stroke-linecap="round" stroke-linejoin="round"></path>
                        <path d="M29.3418872,60 C27.4990907,60 26,58.5213048 26,56.7037924 L26,16.2968126 C26,14.4793002 27.4990907,13 29.3418872,13 L30.2826834,13 C30.4427157,13 30.5730451,13.1282665 30.5730451,13.2867846 L30.5730451,14.0684843 C30.5730451,14.7533792 31.1380077,15.3106125 31.8314811,15.3106125 L41.2412609,15.3106125 C41.9347343,15.3106125 42.4996969,14.7533792 42.4996969,14.0684843 L42.4996969,13.2867846 C42.4996969,13.1282665 42.6300263,13 42.7906648,13 L43.6581128,13 C45.5009093,13 47,14.4793002 47,16.2968126 L47,56.7037924 C47,58.5213048 45.5009093,60 43.6581128,60 L29.3418872,60 Z" id="Stroke-63" stroke="#000000" stroke-width="0.6"></path>
                        <path d="M50.5,21 L50.5,26" id="Stroke-65" stroke="#000000" stroke-width="0.6" stroke-linecap="round" stroke-linejoin="round"></path>
                        <path d="M23.5,21 L23.5,24" id="Stroke-67" stroke="#000000" stroke-width="0.6" stroke-linecap="round" stroke-linejoin="round"></path>
                        <path d="M23.5,26 L23.5,29" id="Stroke-69" stroke="#000000" stroke-width="0.6" stroke-linecap="round" stroke-linejoin="round"></path>
                    </g>
                    <g id="01" transform="translate(81.000000, 176.000000)">
                        <g id="Oval">
                            <use fill="black" fill-opacity="1" filter="url(#filter-6)" xlink:href="#path-5"></use>
                            <use fill="#FFD700" fill-rule="evenodd" xlink:href="#path-5"></use>
                        </g>
                        <g id="Group-15" transform="translate(22.260163, 16.243902)" stroke="#000000">
                            <path d="M23.5193597,27.7035785 C21.9046363,32.6659952 16.5328298,35.3921255 11.5207752,33.7936618 C6.50921009,32.1947097 3.75551683,26.8762649 5.37024026,21.9143366 C6.9849637,16.9524084 12.3567702,14.2262781 17.3688248,15.8252302 C22.3799005,17.4236939 25.1340832,22.7421387 23.5193597,27.7035785 Z" id="Stroke-1" stroke-width="0.737748"></path>
                            <path d="M21.2823388,26.9905455 C20.0655451,30.729085 16.0182131,32.7832061 12.2415517,31.578864 C8.46537974,30.374522 6.39056536,26.3668859 7.60686962,22.627858 C8.82366333,18.8893186 12.8714847,16.8351975 16.6476567,18.0395395 C20.4243181,19.2443699 22.4991325,23.2515177 21.2823388,26.9905455 Z" id="Stroke-3" stroke-width="0.5"></path>
                            <path d="M17.9410017,7.995786 C17.3189,9.90778887 15.2489802,10.9582916 13.3185561,10.342446 C11.3866636,9.72611197 10.3260071,7.67736304 10.9481088,5.76536017 C11.5702105,3.85384568 13.6401303,2.80285458 15.5715334,3.41918858 C17.502447,4.0350342 18.5631034,6.08427151 17.9410017,7.995786 Z" id="Stroke-5" stroke-width="0.737748"></path>
                            <path d="M16.5849571,7.56318009 C16.2041584,8.73333561 14.9369505,9.37653044 13.7553978,8.99950204 C12.5733556,8.62247363 11.9238442,7.36880534 12.3046429,6.19816143 C12.6854416,5.02800591 13.9526495,4.38481108 15.1342022,4.76232786 C16.3162444,5.13886789 16.9657558,6.39302456 16.5849571,7.56318009 Z" id="Stroke-7" stroke-width="0.5"></path>
                            <path d="M24.3778209,40.6694487 C23.8908098,41.0342677 22.9926535,41.3331555 22.3818093,41.3331555 L6.50818222,41.3331555 C5.89684862,41.3331555 4.99869235,41.0342677 4.51217065,40.6694487 L0.982196279,38.0219474 C0.495674576,37.6566401 0.0972553948,36.8630246 0.0972553948,36.2584117 L0.0972553948,5.17066135 C0.0972553948,4.56604844 0.495674576,3.77243294 0.982196279,3.40712562 L4.51217065,0.760112712 C4.99869235,0.394805395 5.89684862,0.0959175897 6.50818222,0.0959175897 L22.3818093,0.0959175897 C22.9926535,0.0959175897 23.8908098,0.394805395 24.3778209,0.760112712 L27.9068164,3.40712562 C28.394317,3.77243294 28.7922467,4.56604844 28.7922467,5.17066135 L28.7922467,36.2584117 C28.7922467,36.8630246 28.394317,37.6566401 27.9068164,38.0219474 L24.3778209,40.6694487 Z" id="Stroke-9" stroke-width="0.972" stroke-linecap="round" stroke-linejoin="round"></path>
                            <path d="M23.2729174,40.9298523 L21.3581559,37.4096181 C21.1892928,37.0990092 21.1011902,36.7522603 21.1011902,36.4001392 L21.1011902,31.5686081 C18.6524296,33.9284543 15.0000906,34.9032583 11.5210199,33.7936618 C10.0022303,33.30919 8.69097115,32.4823648 7.64597735,31.4284434 L7.64597735,36.4284652 C7.64597735,36.7630046 7.56668508,37.0926603 7.41397404,37.3905714 L5.57703646,40.9816204" id="Stroke-11" stroke-width="0.776142" stroke-linecap="round" stroke-linejoin="round"></path>
                            <path d="M17.3683843,15.8250837 C18.8191391,16.2875784 20.0804736,17.0621471 21.1009945,18.049649 L21.1009945,5.16963575 C21.1009945,3.23614422 19.5180858,1.66844838 17.5651466,1.66844838 L11.1816294,1.66844838 C9.22917966,1.66844838 7.64578156,3.23614422 7.64578156,5.16963575 L7.64578156,18.190302 C10.0940527,15.7288731 13.8212789,14.6935101 17.3683843,15.8250837 Z" id="Stroke-13" stroke-width="0.972"></path>
                        </g>
                    </g>
                    <g id="01" transform="translate(308.000000, 203.000000)">
                        <g id="Oval">
                            <use fill="black" fill-opacity="1" filter="url(#filter-8)" xlink:href="#path-7"></use>
                            <use fill="#FFD700" fill-rule="evenodd" xlink:href="#path-7"></use>
                        </g>
                        <g id="Oval" opacity="0.837007068">
                            <use fill="black" fill-opacity="1" filter="url(#filter-10)" xlink:href="#path-9"></use>
                            <use stroke="#FFD700" stroke-width="6" xlink:href="#path-9"></use>
                        </g>
                        <g id="Oval" opacity="0.338239397">
                            <use fill="black" fill-opacity="1" filter="url(#filter-12)" xlink:href="#path-11"></use>
                            <use stroke="#FFD700" stroke-width="2" xlink:href="#path-11"></use>
                        </g>
                    </g>
                    <path d="" id="Path-6" stroke="#979797"></path>
                    <path d="M402.645363,283.924096 C402.80569,284.120013 403.091925,283.900392 402.971,283.675934 L384.606259,249.699484 L384.598559,249.704321 L381.13295,243.28113 C380.984398,243.006361 380.748889,242.98943 380.62117,243.003459 C380.495263,243.017971 380.271077,243.086663 380.178685,243.382233 L375.174113,261.199116 C374.391044,263.989369 376.347583,266.796068 379.074508,266.796068 L384.090856,266.796068 C386.993055,266.796068 389.754401,268.137498 391.662932,270.473996 L402.645363,283.924096 Z" id="Fill-1" fill="#000000"></path>
                    <path d="M370.439731,262.1087 L374.459258,248.276145 C374.530801,248.033807 374.204881,247.888308 374.080966,248.108002 L351.077639,289.15905 C350.922862,289.445231 351.028073,289.666371 351.145442,289.80368 C351.262343,289.940507 351.465283,290.077816 351.762679,289.947734 L351.830014,289.920754 L372.245151,282.185682 C374.692125,281.259207 375.738623,278.285143 374.436345,275.958117 L371.389436,270.512491 C369.964645,267.965289 369.620956,264.92522 370.439731,262.1087" id="Fill-3" fill="#000000"></path>
                    <path d="M400.111523,292.991232 L406.433649,292.991232 C406.743415,292.991232 406.885713,292.776167 406.942826,292.648262 C406.997519,292.521389 407.062377,292.274863 406.877485,292.024211 L390.961333,272.588377 C389.000613,270.193259 385.411202,270.564079 383.91755,273.314545 L380.884749,278.899543 C379.625842,281.217815 377.644309,282.991461 375.283797,283.91258 L353.140385,292.555944 C352.915805,292.644652 352.975338,293 353.214923,293 L400.111523,293 L400.111523,292.991232 Z" id="Fill-5" fill="#000000"></path>
                </g>
            </g>
        </g>
    </g>
</svg>